<?xml version="1.0" encoding="utf-8"?>
<!-- Generator: Adobe Illustrator 27.5.0, SVG Export Plug-In . SVG Version: 6.00 Build 0)  -->
<svg version="1.1" xmlns="http://www.w3.org/2000/svg" xmlns:xlink="http://www.w3.org/1999/xlink" x="0px" y="0px"
	 viewBox="0 0 500 500" style="enable-background:new 0 0 500 500;" xml:space="preserve">
<g id="BACKGROUND">
	<rect style="fill:#EAE5FF;" width="500" height="500"/>
	<g>
		<path style="fill:#5C49EA;" d="M49.445,147.084c0-1.599,1.296-2.896,2.896-2.896c1.599,0,2.895,1.296,2.895,2.896
			s-1.296,2.895-2.895,2.895C50.742,149.979,49.445,148.683,49.445,147.084z"/>
		<path style="fill:#5C49EA;" d="M51.968,353.667c0-1.599,1.296-2.895,2.895-2.895c1.599,0,2.896,1.296,2.896,2.895
			c0,1.599-1.296,2.896-2.896,2.896C53.265,356.562,51.968,355.266,51.968,353.667z"/>
		<path d="M450.555,329.05c0-1.599,1.296-2.896,2.896-2.896c1.599,0,2.896,1.296,2.896,2.896c0,1.599-1.296,2.895-2.896,2.895
			C451.851,331.945,450.555,330.649,450.555,329.05z"/>
		<path d="M103.698,419.086c0-1.599,1.296-2.895,2.896-2.895c1.599,0,2.896,1.296,2.896,2.895c0,1.599-1.296,2.896-2.896,2.896
			C104.995,421.982,103.698,420.685,103.698,419.086z"/>
		<path d="M329.147,452.182c0-1.599,1.296-2.895,2.896-2.895s2.896,1.296,2.896,2.895c0,1.599-1.296,2.896-2.896,2.896
			S329.147,453.781,329.147,452.182z"/>
		<path style="fill:#CD93F8;" d="M228.511,442.501c0-1.599,1.296-2.896,2.895-2.896c1.599,0,2.896,1.296,2.896,2.896
			c0,1.599-1.296,2.895-2.896,2.895C229.807,445.396,228.511,444.1,228.511,442.501z"/>
		<path style="fill:#5C49EA;" d="M141.114,353.667c0-1.599,1.296-2.895,2.896-2.895s2.895,1.296,2.895,2.895
			s-1.296,2.896-2.895,2.896S141.114,355.266,141.114,353.667z"/>
		<path style="fill:#5C49EA;" d="M362.846,353.667c0-1.599,1.296-2.895,2.896-2.895s2.896,1.296,2.896,2.895
			s-1.296,2.896-2.896,2.896S362.846,355.266,362.846,353.667z"/>
		<path style="fill:#00DCBF;" d="M379.66,394.799c0-1.599,1.296-2.895,2.895-2.895c1.599,0,2.896,1.296,2.896,2.895
			c0,1.599-1.296,2.895-2.896,2.895C380.957,397.694,379.66,396.398,379.66,394.799z"/>
		<path d="M422.26,117.784c0-1.599,1.296-2.896,2.896-2.896c1.599,0,2.895,1.296,2.895,2.896c0,1.599-1.296,2.896-2.895,2.896
			C423.557,120.679,422.26,119.383,422.26,117.784z"/>
		<path d="M272.095,29.06c0-1.599,1.296-2.896,2.896-2.896c1.599,0,2.895,1.296,2.895,2.896s-1.296,2.895-2.895,2.895
			C273.391,31.956,272.095,30.659,272.095,29.06z"/>
		<path style="fill:none;stroke:#CD93F8;stroke-width:5;stroke-linecap:round;stroke-miterlimit:10;" d="M326.252,41.845
			c15.544,6.57,30.571,15.053,44.756,25.497c8.192,6.032,15.843,12.526,22.943,19.42"/>
		<path style="fill:none;stroke:#00DCBF;stroke-width:5;stroke-linecap:round;stroke-miterlimit:10;" d="M352.761,416.191
			c-21.463,13.088-45.616,22.199-71.436,26.31"/>
		<path style="fill:none;stroke:#5C49EA;stroke-width:5;stroke-linecap:round;stroke-miterlimit:10;" d="M46.881,333.122
			c-11.157-26.375-17.326-55.373-17.326-85.813c0-30.437,6.169-59.433,17.324-85.807"/>
		<path style="fill:none;stroke:#000000;stroke-width:5;stroke-linecap:round;stroke-miterlimit:10;" d="M438.791,133.432
			c20.091,33.237,31.654,72.207,31.654,113.878c0,22.069-3.243,43.38-9.278,63.484"/>
		<path style="fill:none;stroke:#000000;stroke-width:5;stroke-linecap:round;stroke-miterlimit:10;" d="M84.65,101.943
			c25.547-29.252,59.151-52.124,98.846-64.804c21.022-6.715,42.31-10.111,63.296-10.479"/>
		<path style="fill:none;stroke:#000000;stroke-width:5;stroke-linecap:round;stroke-miterlimit:10;" d="M296.46,463.772
			c-14.981,3.2-30.524,4.884-46.46,4.884c-42.15,0-81.549-11.782-115.082-32.231"/>
		<path style="fill:none;stroke:#CD93F8;stroke-width:5;stroke-linecap:round;stroke-miterlimit:10;" d="M421.013,397.696
			c-4.53,4.729-9.307,9.299-14.331,13.692c-13.16,11.508-27.297,21.179-42.099,29.033"/>
		<path style="fill:none;stroke:#CD93F8;stroke-width:5;stroke-linecap:round;stroke-miterlimit:10;" d="M178,429.35
			c-40.304-16.21-73.884-45.611-95.393-82.859"/>
		<path style="fill:none;stroke:#5C49EA;stroke-width:5;stroke-linecap:round;stroke-miterlimit:10;" d="M355.986,363.633
			c-26.104,24.239-61.074,39.061-99.506,39.061c-38.432,0-73.403-14.822-99.507-39.061"/>
	</g>
</g>
<g id="OBJECTS">
</g>
<g id="TEXTS">
	<g>
		<g>
			<path style="fill:#5C49EA;stroke:#EAE5FF;stroke-width:2;stroke-miterlimit:10;" d="M250.024,281.06l-31.85,31.85
				c-0.55,0.55-1.1,1.08-1.65,1.61l-6.26-25.11l-21.75-9.07l30.34-30.34"/>
			<path style="fill:#5C49EA;stroke:#EAE5FF;stroke-width:2;stroke-miterlimit:10;" d="M216.524,314.52
				c-17.13,16.27-39.2,24.4-61.26,24.4c-22.79,0-45.57-8.67-62.91-26.01c-9.4-9.4-16.44-20.53-20.81-32.68l23.89,0.4l16.66-18.08
				c2.03,7.05,5.83,13.7,11.37,19.25c17.53,17.53,46.06,17.53,63.59,0l1.46-1.46l21.75,9.07L216.524,314.52z"/>
			<path style="fill:#5C49EA;stroke:#EAE5FF;stroke-width:2;stroke-miterlimit:10;" d="M281.194,250l31.8-31.8
				c1.81-1.8,3.74-3.44,5.78-4.89l-2.44-24.14l-21.74-12.65c-4.51,3.09-8.77,6.62-12.72,10.57l-31.85,31.85"/>
			<path style="fill:#5C49EA;stroke:#EAE5FF;stroke-width:2;stroke-miterlimit:10;" d="M433.104,260.34l-23.74,6.37l-19.79-12.73
				c0.12-1.32,0.18-2.64,0.18-3.98c0-12.01-4.68-23.3-13.17-31.8c-8.49-8.49-19.79-13.17-31.8-13.17c-9.45,0-18.46,2.9-26.01,8.28
				l-2.44-24.14l-21.74-12.65c14.67-10.07,32.02-15.49,50.19-15.49c23.77,0,46.11,9.26,62.91,26.06
				C427.664,207.06,436.144,234.25,433.104,260.34z"/>
			<path style="fill:#5C49EA;" d="M318.714,286.64l-22.08,10.27l-6.21,23.53c-2.98-2.31-5.84-4.82-8.55-7.53l-31.85-31.85
				L218.854,250l-20.56-20.56l6.47-24.39l24.29-7.07l20.97,20.96l31.17,31.06l31.8,31.8
				C314.784,283.59,316.694,285.21,318.714,286.64z"/>
			<polygon style="fill:#130532;" points="218.854,250 242.848,286.66 249.314,280.352 			"/>
			<polygon style="fill:#130532;" points="280.251,249.06 258.039,212.342 250.731,219.644 			"/>
			<path style="fill:#5C49EA;stroke:#EAE5FF;stroke-width:2;stroke-miterlimit:10;" d="M433.104,260.34
				c-2.22,19.22-10.69,37.85-25.41,52.57c-16.8,16.8-39.14,26.06-62.91,26.06c-19.93,0-38.86-6.51-54.36-18.53l6.21-23.53
				l22.08-10.27c7.56,5.41,16.59,8.33,26.07,8.33c12.01,0,23.31-4.68,31.8-13.17c7.54-7.55,12.08-17.31,12.99-27.82l19.79,12.73
				L433.104,260.34z"/>
			<path style="fill:#5C49EA;stroke:#EAE5FF;stroke-width:2;stroke-miterlimit:10;" d="M229.054,197.98l-24.29,7.07l-6.47,24.39
				l-11.24-11.24c-8.76-8.76-20.28-13.15-31.79-13.15c-11.52,0-23.03,4.39-31.8,13.15c-11.98,11.99-15.78,29.11-11.37,44.35
				l-16.66,18.08l-23.89-0.4c-3.46-9.56-5.25-19.76-5.25-30.23c0-23.76,9.25-46.11,26.06-62.91c34.69-34.69,91.13-34.69,125.82,0
				L229.054,197.98z"/>
		</g>
		<g>
			<linearGradient id="SVGID_1_" gradientUnits="userSpaceOnUse" x1="169.4089" y1="288.9419" x2="212.1401" y2="288.9419">
				<stop  offset="0" style="stop-color:#CD93F8"/>
				<stop  offset="0" style="stop-color:#5C49EA;stop-opacity:0"/>
				<stop  offset="1" style="stop-color:#C78FF7;stop-opacity:0.9503"/>
			</linearGradient>
			<path style="fill:none;stroke:url(#SVGID_1_);stroke-width:4;stroke-linecap:round;stroke-miterlimit:10;" d="M210.14,274.269
				l-15.305,15.305c-6.646,6.647-14.669,11.415-23.426,14.04"/>
			
				<linearGradient id="SVGID_00000008851410127247055830000002673900265091439020_" gradientUnits="userSpaceOnUse" x1="82.6738" y1="305.5872" x2="157.2604" y2="305.5872">
				<stop  offset="0" style="stop-color:#CD93F8"/>
				<stop  offset="0" style="stop-color:#5C49EA;stop-opacity:0"/>
				<stop  offset="1" style="stop-color:#C78FF7;stop-opacity:0.9503"/>
			</linearGradient>
			
				<path style="fill:none;stroke:url(#SVGID_00000008851410127247055830000002673900265091439020_);stroke-width:4;stroke-linecap:round;stroke-miterlimit:10;" d="
				M155.26,327.967c-20.825,0-40.405-8.11-55.131-22.836c-6.472-6.473-11.666-13.882-15.456-21.923"/>
			
				<linearGradient id="SVGID_00000015339741761529388730000000430278985481472185_" gradientUnits="userSpaceOnUse" x1="168.5897" y1="193.463" x2="230.9186" y2="193.463">
				<stop  offset="0" style="stop-color:#CD93F8"/>
				<stop  offset="0" style="stop-color:#5C49EA;stop-opacity:0"/>
				<stop  offset="1" style="stop-color:#C78FF7;stop-opacity:0.9503"/>
			</linearGradient>
			
				<path style="fill:none;stroke:url(#SVGID_00000015339741761529388730000000430278985481472185_);stroke-width:4;stroke-linecap:round;stroke-miterlimit:10;" d="
				M170.59,173.531c14.983,2.971,28.758,10.294,39.802,21.338l18.527,18.527"/>
			
				<linearGradient id="SVGID_00000099622447781127264500000013994871203936932500_" gradientUnits="userSpaceOnUse" x1="260.3944" y1="299.9699" x2="316.9346" y2="299.9699">
				<stop  offset="0" style="stop-color:#CD93F8"/>
				<stop  offset="1" style="stop-color:#5C49EA;stop-opacity:0"/>
			</linearGradient>
			
				<path style="fill:none;stroke:url(#SVGID_00000099622447781127264500000013994871203936932500_);stroke-width:4;stroke-linecap:round;stroke-miterlimit:10;" d="
				M314.935,322.071c-9.339-3.868-17.915-9.577-25.278-16.94l-27.263-27.262"/>
			
				<linearGradient id="SVGID_00000067195537965685691220000006275155987175864456_" gradientUnits="userSpaceOnUse" x1="380.7973" y1="230.8689" x2="424.7546" y2="230.8689">
				<stop  offset="0" style="stop-color:#5C49EA;stop-opacity:0"/>
				<stop  offset="1" style="stop-color:#CD93F8"/>
			</linearGradient>
			
				<path style="fill:none;stroke:url(#SVGID_00000067195537965685691220000006275155987175864456_);stroke-width:4;stroke-linecap:round;stroke-miterlimit:10;" d="
				M382.797,181.885c6.2,3.472,11.959,7.821,17.121,12.983c14.726,14.726,22.836,34.306,22.836,55.131
				c0,10.413-2.028,20.514-5.896,29.853"/>
			
				<linearGradient id="SVGID_00000155141180278046935980000012151098151387925917_" gradientUnits="userSpaceOnUse" x1="292.06" y1="207.806" x2="356.3325" y2="207.806">
				<stop  offset="0" style="stop-color:#CD93F8"/>
				<stop  offset="0" style="stop-color:#5C49EA;stop-opacity:0"/>
				<stop  offset="1" style="stop-color:#C78FF7;stop-opacity:0.9503"/>
			</linearGradient>
			
				<path style="fill:none;stroke:url(#SVGID_00000155141180278046935980000012151098151387925917_);stroke-width:4;stroke-linecap:round;stroke-miterlimit:10;" d="
				M294.06,221.579l11.154-11.153c10.57-10.571,24.625-16.392,39.574-16.392c3.232,0,6.422,0.272,9.545,0.805"/>
		</g>
		<g>
			
				<linearGradient id="SVGID_00000006685992603192260810000009185000307872099201_" gradientUnits="userSpaceOnUse" x1="84.2936" y1="243.7007" x2="129.3803" y2="243.7007">
				<stop  offset="0" style="stop-color:#00DCBF"/>
				<stop  offset="0.1934" style="stop-color:#02D9C0;stop-opacity:0.7831"/>
				<stop  offset="0.3352" style="stop-color:#08D0C3;stop-opacity:0.624"/>
				<stop  offset="0.4606" style="stop-color:#12C0C7;stop-opacity:0.4833"/>
				<stop  offset="0.5765" style="stop-color:#20A9CE;stop-opacity:0.3533"/>
				<stop  offset="0.6858" style="stop-color:#328CD6;stop-opacity:0.2307"/>
				<stop  offset="0.7888" style="stop-color:#4869E1;stop-opacity:0.1152"/>
				<stop  offset="0.8505" style="stop-color:#5850E8;stop-opacity:0.046"/>
				<stop  offset="0.8853" style="stop-color:#5B4BE9;stop-opacity:0.0353"/>
				<stop  offset="1" style="stop-color:#5C49EA;stop-opacity:0"/>
			</linearGradient>
			
				<path style="fill:none;stroke:url(#SVGID_00000006685992603192260810000009185000307872099201_);stroke-width:8;stroke-linecap:round;stroke-miterlimit:10;" d="
				M107.908,297.353c-26.152-26.152-26.152-68.553,0-94.706l0,0c5.256-5.256,11.168-9.455,17.472-12.599"/>
			
				<linearGradient id="SVGID_00000148649430190026492770000003484755820471257521_" gradientUnits="userSpaceOnUse" x1="223.0946" y1="256.4221" x2="289.817" y2="256.4221" gradientTransform="matrix(-1 0 0 -1 512.9598 512.8441)">
				<stop  offset="0" style="stop-color:#CD93F8"/>
				<stop  offset="0" style="stop-color:#5C49EA;stop-opacity:0"/>
				<stop  offset="1" style="stop-color:#00DCBF;stop-opacity:0.9503"/>
			</linearGradient>
			
				<line style="fill:none;stroke:url(#SVGID_00000148649430190026492770000003484755820471257521_);stroke-width:8;stroke-linecap:round;stroke-miterlimit:10;" x1="227.143" y1="227.061" x2="285.865" y2="285.783"/>
			
				<linearGradient id="SVGID_00000150097525287959971000000001030979642227845277_" gradientUnits="userSpaceOnUse" x1="323.7477" y1="257.8262" x2="368.8345" y2="257.8262" gradientTransform="matrix(-0.847 -0.5315 -0.5315 0.847 819.6876 235.996)">
				<stop  offset="0" style="stop-color:#00DCBF"/>
				<stop  offset="0.1934" style="stop-color:#02D9C0;stop-opacity:0.7831"/>
				<stop  offset="0.3352" style="stop-color:#08D0C3;stop-opacity:0.624"/>
				<stop  offset="0.4606" style="stop-color:#12C0C7;stop-opacity:0.4833"/>
				<stop  offset="0.5765" style="stop-color:#20A9CE;stop-opacity:0.3533"/>
				<stop  offset="0.6858" style="stop-color:#328CD6;stop-opacity:0.2307"/>
				<stop  offset="0.7888" style="stop-color:#4869E1;stop-opacity:0.1152"/>
				<stop  offset="0.8505" style="stop-color:#5850E8;stop-opacity:0.046"/>
				<stop  offset="0.8853" style="stop-color:#5B4BE9;stop-opacity:0.0353"/>
				<stop  offset="1" style="stop-color:#5C49EA;stop-opacity:0"/>
			</linearGradient>
			
				<path style="fill:none;stroke:url(#SVGID_00000150097525287959971000000001030979642227845277_);stroke-width:8;stroke-linecap:round;stroke-miterlimit:10;" d="
				M359.918,315.197c36.053-8.25,58.591-44.165,50.341-80.218l0,0c-1.658-7.245-4.434-13.945-8.103-19.959"/>
		</g>
	</g>
	
		<ellipse transform="matrix(0.7071 -0.7071 0.7071 0.7071 -69.2794 87.9656)" style="fill:#5C49EA;stroke:#CD93F8;stroke-width:4.2671;stroke-miterlimit:10;" cx="71.544" cy="127.61" rx="33.892" ry="33.892"/>
	
		<ellipse transform="matrix(0.7071 -0.7071 0.7071 0.7071 -162.3284 354.3129)" style="fill:#5C49EA;stroke:#CD93F8;stroke-width:2.8117;stroke-miterlimit:10;" cx="346.529" cy="373.104" rx="22.333" ry="22.333"/>
	<circle style="fill:#5C49EA;stroke:#CD93F8;stroke-width:3.8225;stroke-miterlimit:10;" cx="408.43" cy="93.775" r="30.361"/>
	<circle style="fill:#5C49EA;stroke:#CD93F8;stroke-width:4.2671;stroke-miterlimit:10;" cx="116.5" cy="421.982" r="33.892"/>
	<text transform="matrix(1 0 0 1 153.4712 112.3357)"><tspan x="0" y="0" style="fill:#FFBC00; font-family:'Poppins-Bold'; font-size:28.3328px; letter-spacing:6;">{</tspan><tspan x="20.598" y="0" style="fill:#5C49EA; font-family:'Poppins-Bold'; font-size:28.3328px; letter-spacing:6;">DevOps</tspan><tspan x="172.46" y="0" style="fill:#FFBC00; font-family:'Poppins-Bold'; font-size:28.3328px; letter-spacing:6;">}</tspan></text>
	<g>
		<g>
			<path style="fill:#0EDBBE;" d="M119.017,401.884c1.968,0.524,3.937,1.048,5.905,1.572c0.527,0.46,0.647,1.017,0.519,1.703
				c-0.185,0.985-0.279,1.987-0.43,2.979c-0.037,0.24,0.031,0.355,0.226,0.499c1.003,0.741,1.994,1.499,2.974,2.271
				c0.19,0.15,0.325,0.182,0.546,0.085c1.006-0.446,2.018-0.878,3.031-1.307c0.726-0.308,1.334-0.115,1.726,0.556
				c0.874,1.497,1.742,2.998,2.606,4.501c0.392,0.682,0.264,1.304-0.358,1.777c-0.877,0.665-1.754,1.33-2.641,1.98
				c-0.193,0.141-0.242,0.268-0.206,0.511c0.185,1.247,0.351,2.497,0.499,3.75c0.027,0.223,0.087,0.331,0.3,0.413
				c1.013,0.391,2.016,0.81,3.027,1.205c0.787,0.307,1.093,0.878,0.877,1.694c-0.433,1.636-0.869,3.271-1.306,4.906
				c-0.226,0.847-0.765,1.188-1.624,1.059c-1.074-0.16-2.152-0.294-3.226-0.46c-0.235-0.036-0.331,0.05-0.46,0.223
				c-0.745,1-1.5,1.993-2.274,2.97c-0.162,0.205-0.187,0.348-0.083,0.581c0.443,0.992,0.867,1.993,1.292,2.993
				c0.318,0.75,0.125,1.344-0.574,1.752c-1.485,0.867-2.973,1.731-4.463,2.59c-0.698,0.402-1.314,0.273-1.806-0.375
				c-0.665-0.876-1.329-1.754-1.982-2.64c-0.133-0.18-0.256-0.221-0.481-0.189c-1.247,0.183-2.498,0.347-3.75,0.497
				c-0.215,0.026-0.337,0.068-0.422,0.289c-0.39,1.014-0.809,2.016-1.203,3.028c-0.309,0.793-0.877,1.105-1.687,0.891
				c-1.649-0.437-3.298-0.876-4.946-1.317c-0.812-0.217-1.157-0.771-1.032-1.605c0.159-1.06,0.293-2.125,0.457-3.184
				c0.04-0.255-0.036-0.379-0.241-0.53c-0.993-0.731-1.974-1.48-2.942-2.243c-0.199-0.156-0.338-0.205-0.579-0.097
				c-0.992,0.444-1.993,0.868-2.993,1.293c-0.773,0.328-1.355,0.135-1.778-0.593c-0.857-1.476-1.71-2.953-2.56-4.432
				c-0.403-0.702-0.279-1.324,0.36-1.809c0.876-0.665,1.753-1.331,2.641-1.981c0.201-0.147,0.223-0.285,0.189-0.518
				c-0.181-1.234-0.347-2.47-0.491-3.709c-0.028-0.242-0.1-0.353-0.325-0.44c-0.936-0.362-1.851-0.78-2.798-1.11
				c-0.66-0.23-1.082-0.612-1.217-1.299c0.524-1.968,1.048-3.937,1.572-5.905c0.463-0.52,1.015-0.648,1.703-0.516
				c0.984,0.188,1.986,0.28,2.977,0.431c0.236,0.036,0.355-0.029,0.499-0.225c0.739-1.003,1.495-1.995,2.268-2.972
				c0.164-0.206,0.182-0.351,0.079-0.582c-0.44-0.992-0.864-1.992-1.288-2.992c-0.317-0.749-0.124-1.344,0.574-1.751
				c1.485-0.866,2.972-1.728,4.461-2.585c0.702-0.404,1.312-0.275,1.804,0.373c0.656,0.865,1.314,1.73,1.954,2.606
				c0.151,0.206,0.287,0.256,0.545,0.217c1.232-0.185,2.468-0.348,3.706-0.49c0.243-0.028,0.354-0.1,0.44-0.324
				c0.362-0.935,0.78-1.85,1.11-2.796C117.951,402.444,118.329,402.018,119.017,401.884z M119.307,412.902
				c-5.579-1.546-11.377,1.764-12.966,7.403c-1.57,5.57,1.772,11.423,7.418,12.993c5.569,1.548,11.395-1.779,12.966-7.405
				C128.285,420.305,124.951,414.466,119.307,412.902z"/>
		</g>
	</g>
	<g>
		
			<ellipse transform="matrix(0.9112 -0.4119 0.4119 0.9112 -99.6196 215.6474)" style="fill:#5C49EA;stroke:#CD93F8;stroke-width:4.2671;stroke-miterlimit:10;" cx="450.555" cy="338.97" rx="33.892" ry="33.892"/>
		<g>
			<path style="fill:#0EDBBE;" d="M436.751,356.562h-5.086v-27.865c0-1.404,1.139-2.543,2.543-2.543l0,0
				c1.404,0,2.543,1.138,2.543,2.543V356.562z"/>
			<path style="fill:#0EDBBE;" d="M468.404,356.562h-5.086v-27.865c0-1.404,1.139-2.543,2.543-2.543l0,0
				c1.404,0,2.543,1.138,2.543,2.543V356.562z"/>
			<path style="fill:#0EDBBE;" d="M444.664,356.562h-5.085V321.17c0-1.404,1.138-2.543,2.543-2.543l0,0
				c1.404,0,2.543,1.138,2.543,2.543V356.562z"/>
			<path style="fill:#0EDBBE;" d="M452.578,356.562h-5.086v-13.457c0-1.404,1.138-2.543,2.543-2.543l0,0
				c1.404,0,2.543,1.138,2.543,2.543V356.562z"/>
			<path style="fill:#0EDBBE;" d="M460.491,356.562h-5.086v-24.039c0-1.404,1.139-2.543,2.543-2.543l0,0
				c1.404,0,2.543,1.138,2.543,2.543V356.562z"/>
		</g>
		<polyline style="fill:none;stroke:#FF84BC;stroke-width:2;stroke-miterlimit:10;" points="425.992,356.562 443.463,340.562 
			450.035,345.663 469.479,325.131 		"/>
	</g>
	<path style="fill:#FFFFFF;" d="M359.322,373.524c-0.061,0-0.121,0.006-0.182,0.009c-0.371-3.12-3.024-5.54-6.244-5.54
		c-0.963,0-1.875,0.217-2.691,0.604c-1.382-2.076-3.742-3.445-6.423-3.445c-3.599,0-6.621,2.466-7.471,5.8
		c-0.388-0.099-0.794-0.152-1.213-0.152c-2.698,0-4.886,2.188-4.886,4.886c0,2.699,2.188,4.886,4.886,4.886h24.224
		c1.947,0,3.524-1.578,3.524-3.524S361.268,373.524,359.322,373.524z"/>
	<g>
		<path style="fill:#130532;" d="M88.317,120.828H54.771c-0.816,0-1.478-0.662-1.478-1.478v-7.156c0-0.816,0.662-1.478,1.478-1.478
			h33.546c0.816,0,1.478,0.662,1.478,1.478v7.156C89.795,120.166,89.133,120.828,88.317,120.828z"/>
		<path style="fill:#130532;" d="M88.317,132.667H54.771c-0.816,0-1.478-0.662-1.478-1.478v-7.156c0-0.816,0.662-1.478,1.478-1.478
			h33.546c0.816,0,1.478,0.662,1.478,1.478v7.156C89.795,132.005,89.133,132.667,88.317,132.667z"/>
		<path style="fill:#130532;" d="M88.317,144.505H54.771c-0.816,0-1.478-0.662-1.478-1.478v-7.156c0-0.816,0.662-1.478,1.478-1.478
			h33.546c0.816,0,1.478,0.662,1.478,1.478v7.156C89.795,143.843,89.133,144.505,88.317,144.505z"/>
		<path style="fill:#00DCBF;" d="M87.404,115.772c0,1.039-0.842,1.881-1.881,1.881c-1.039,0-1.881-0.842-1.881-1.881
			c0-1.039,0.842-1.881,1.881-1.881C86.562,113.891,87.404,114.733,87.404,115.772z"/>
		<path style="fill:#00DCBF;" d="M87.404,127.61c0,1.039-0.842,1.881-1.881,1.881c-1.039,0-1.881-0.842-1.881-1.881
			c0-1.039,0.842-1.881,1.881-1.881C86.562,125.729,87.404,126.572,87.404,127.61z"/>
		<path style="fill:#00DCBF;" d="M87.404,139.449c0,1.039-0.842,1.881-1.881,1.881c-1.039,0-1.881-0.842-1.881-1.881
			c0-1.039,0.842-1.881,1.881-1.881C86.562,137.568,87.404,138.41,87.404,139.449z"/>
	</g>
	<g>
		<path style="fill:#130532;" d="M424.766,82.22c-0.523,5.691-2.919,21.014-13.73,29.264c-0.931,0.71-2.232,0.71-3.163,0
			c-10.811-8.249-13.206-23.573-13.73-29.263c-0.116-1.266,0.706-2.421,1.936-2.736l12.732-3.267c0.422-0.108,0.865-0.108,1.287,0
			l12.73,3.266C424.06,79.799,424.882,80.954,424.766,82.22z"/>
		<path style="fill:#00DCBF;" d="M409.454,108.914c-9.372-7.345-11.711-20.77-12.29-26.612l12.291-3.153l12.289,3.153
			C421.165,88.144,418.825,101.569,409.454,108.914z"/>
		<path style="fill:#130532;" d="M411.962,89.82c0,1.385-1.122,2.507-2.507,2.507s-2.507-1.123-2.507-2.507
			c0-1.385,1.122-2.507,2.507-2.507S411.962,88.435,411.962,89.82z"/>
		<circle style="fill:#130532;" cx="409.455" cy="94.433" r="2.507"/>
	</g>
	<g>
		<text transform="matrix(1 0 0 1 133.2279 142.8856)" style="font-family:'Poppins-Medium'; font-size:15.892px;">Development + IT Operations</text>
	</g>
</g>
</svg>
